HIERARCHY
ROOT Hips
{
	OFFSET 0.000000 1.471914 24.280096
	CHANNELS 6 Xposition Yposition Zposition Xrotation Yrotation Zrotation
	JOINT Spine
	{
		OFFSET 0.000000 0.900110 1.860670
		CHANNELS 6 Xposition Yposition Zposition Xrotation Yrotation Zrotation
		JOINT Spine1
		{
			OFFSET 0.000000 0.400320 2.270309
			CHANNELS 6 Xposition Yposition Zposition Xrotation Yrotation Zrotation
			JOINT Spine2
			{
				OFFSET 0.000000 0.200920 2.296560
				CHANNELS 6 Xposition Yposition Zposition Xrotation Yrotation Zrotation
				JOINT Spine3
				{
					OFFSET 0.000000 0.000000 2.305330
					CHANNELS 6 Xposition Yposition Zposition Xrotation Yrotation Zrotation
					JOINT Neck
					{
						OFFSET 0.000000 -0.864490 6.051487
						CHANNELS 6 Xposition Yposition Zposition Xrotation Yrotation Zrotation
						JOINT Head
						{
							OFFSET 0.000000 -0.550429 3.121674
							CHANNELS 6 Xposition Yposition Zposition Xrotation Yrotation Zrotation
							End Site
							{
								OFFSET 0.000000 0.000000 3.731750
							}
						}
					}
					JOINT RightShoulder
					{
						OFFSET -0.788280 -1.313800 4.256718
						CHANNELS 6 Xposition Yposition Zposition Xrotation Yrotation Zrotation
						JOINT RightArm
						{
							OFFSET -3.915130 0.000000 0.000000
							CHANNELS 6 Xposition Yposition Zposition Xrotation Yrotation Zrotation
							JOINT RightForeArm
							{
								OFFSET -6.914910 0.000000 0.000000
								CHANNELS 6 Xposition Yposition Zposition Xrotation Yrotation Zrotation
								JOINT RightHand
								{
									OFFSET -6.096219 0.000000 0.000000
									CHANNELS 6 Xposition Yposition Zposition Xrotation Yrotation Zrotation
									JOINT RightHandEnd
									{
										OFFSET -1.749950 0.000000 0.000000
										CHANNELS 6 Xposition Yposition Zposition Xrotation Yrotation Zrotation
										End Site
										{
											OFFSET -1.749950 0.000000 0.000000
										}
									}
									JOINT RightHandThumb1
									{
										OFFSET -0.699980 -1.166630 -0.466648
										CHANNELS 6 Xposition Yposition Zposition Xrotation Yrotation Zrotation
										End Site
										{
											OFFSET -1.690319 -0.452920 0.000000
										}
									}
								}
							}
						}
					}
					JOINT LeftShoulder
					{
						OFFSET 0.788280 -1.313800 4.256718
						CHANNELS 6 Xposition Yposition Zposition Xrotation Yrotation Zrotation
						JOINT LeftArm
						{
							OFFSET 3.915130 0.000000 0.000000
							CHANNELS 6 Xposition Yposition Zposition Xrotation Yrotation Zrotation
							JOINT LeftForeArm
							{
								OFFSET 6.914910 0.000000 0.000000
								CHANNELS 6 Xposition Yposition Zposition Xrotation Yrotation Zrotation
								JOINT LeftHand
								{
									OFFSET 6.096219 0.000000 0.000000
									CHANNELS 6 Xposition Yposition Zposition Xrotation Yrotation Zrotation
									JOINT LeftHandEnd
									{
										OFFSET 1.749950 0.000000 0.000000
										CHANNELS 6 Xposition Yposition Zposition Xrotation Yrotation Zrotation
										End Site
										{
											OFFSET 1.749950 0.000000 0.000000
										}
									}
									JOINT LeftHandThumb1
									{
										OFFSET 0.699980 -1.166630 -0.466648
										CHANNELS 6 Xposition Yposition Zposition Xrotation Yrotation Zrotation
										End Site
										{
											OFFSET 1.690319 -0.452920 0.000000
										}
									}
								}
							}
						}
					}
				}
			}
		}
	}
	JOINT RightUpLeg
	{
		OFFSET -2.338570 -0.252550 -0.551512
		CHANNELS 6 Xposition Yposition Zposition Xrotation Yrotation Zrotation
		JOINT RightLeg
		{
			OFFSET 0.000000 0.000000 -10.744959
			CHANNELS 6 Xposition Yposition Zposition Xrotation Yrotation Zrotation
			JOINT RightFoot
			{
				OFFSET 0.000000 -0.000001 -10.930849
				CHANNELS 6 Xposition Yposition Zposition Xrotation Yrotation Zrotation
				JOINT RightToeBase
				{
					OFFSET 0.000000 -4.087269 -1.487650
					CHANNELS 6 Xposition Yposition Zposition Xrotation Yrotation Zrotation
					End Site
					{
						OFFSET 0.000000 -1.891870 0.000000
					}
				}
			}
		}
	}
	JOINT LeftUpLeg
	{
		OFFSET 2.338570 -0.252550 -0.551512
		CHANNELS 6 Xposition Yposition Zposition Xrotation Yrotation Zrotation
		JOINT LeftLeg
		{
			OFFSET 0.000000 0.000000 -10.744959
			CHANNELS 6 Xposition Yposition Zposition Xrotation Yrotation Zrotation
			JOINT LeftFoot
			{
				OFFSET 0.000000 -0.000001 -10.930849
				CHANNELS 6 Xposition Yposition Zposition Xrotation Yrotation Zrotation
				JOINT LeftToeBase
				{
					OFFSET 0.000000 -4.087269 -1.487650
					CHANNELS 6 Xposition Yposition Zposition Xrotation Yrotation Zrotation
					End Site
					{
						OFFSET 0.000000 -1.891870 0.000000
					}
				}
			}
		}
	}
}
MOTION
Frames: 4
Frame Time: 0.041667
0.000211 26.873850 34.755646 6.511931 27.997143 68.458604 -0.000005 0.900088 1.860674 21.525187 -12.091907 3.140464 -0.000018 0.400268 2.270290 0.000003 0.000003 0.000016 0.000014 0.200869 2.296543 -0.000002 -0.000002 0.000002 0.000017 0.000023 2.305302 -0.000013 -0.000011 5.562851 -0.000022 -0.864445 6.051370 -15.296036 9.202149 -177.515729 0.000044 -0.550413 3.121673 -0.000009 -0.000001 -0.000006 -0.788276 -1.313739 4.256824 5.612076 125.372780 142.743741 -3.915141 -0.000022 -0.000012 -0.000000 -0.000004 -0.000002 -6.914840 -0.000002 0.000027 -0.000031 -0.000025 -115.289031 -6.096187 0.000018 0.000015 -0.000019 -0.000029 -0.000044 -1.749903 -0.000017 0.000031 -0.000001 0.000002 0.000001 -0.699969 -1.166611 -0.466646 -0.000021 -0.000007 -0.000025 0.788255 -1.313762 4.256763 -139.999508 -57.690175 71.625633 3.915261 0.000001 -0.000042 0.000000 0.000004 0.000002 6.914926 -0.000060 0.000003 -0.000022 0.000020 89.004994 6.096258 0.000178 -0.000026 -0.000000 0.000009 0.000026 1.749996 0.000016 0.000065 -0.000011 -0.000006 0.000005 0.699981 -1.166588 -0.466647 0.000038 -0.000007 -0.000042 -2.338595 -0.252539 -0.551446 -94.471632 -3.307448 -8.574268 0.000013 -0.000014 -10.744946 71.588620 -5.681685 -3.756269 -0.000022 0.000071 -10.930840 0.000048 -0.000002 -0.000000 -0.000030 -4.087236 -1.487616 0.000004 -0.000000 -0.000001 2.338590 -0.252534 -0.551485 -90.457372 -3.844223 -8.569033 -0.000024 0.000004 -10.744925 76.382832 -6.676174 -3.800111 0.000009 -0.000008 -10.930861 -0.000009 0.000002 0.000003 -0.000054 -4.087204 -1.487654 -0.000006 -0.000002 -0.000005 
0.000197 26.873852 34.755630 6.211329 28.094853 68.869952 -0.000003 0.900086 1.860680 21.193356 -12.284619 3.111035 -0.000017 0.400272 2.270290 0.000009 0.000002 0.000017 0.000012 0.200871 2.296543 -0.000001 0.000001 0.000004 0.000020 0.000026 2.305306 -0.000015 -0.000011 5.395438 -0.000021 -0.864441 6.051372 -15.144182 10.077357 -175.708543 0.000045 -0.550415 3.121670 -0.000010 -0.000002 -0.000004 -0.788277 -1.313733 4.256823 7.538125 126.033738 141.621145 -3.915139 -0.000022 -0.000012 -0.000000 -0.000005 0.000002 -6.914844 -0.000002 0.000023 -0.000032 -0.000021 -115.306762 -6.096186 0.000018 0.000015 -0.000019 -0.000027 -0.000044 -1.749903 -0.000015 0.000035 -0.000002 0.000002 0.000001 -0.699971 -1.166608 -0.466643 -0.000025 -0.000007 -0.000026 0.788259 -1.313759 4.256762 -138.588472 -57.951252 73.607275 3.915256 0.000002 -0.000038 -0.000002 0.000003 0.000001 6.914924 -0.000062 -0.000006 -0.000014 0.000014 84.679818 6.096260 0.000177 -0.000028 -0.000002 0.000014 0.000026 1.749997 0.000015 0.000078 -0.000012 -0.000010 0.000007 0.699978 -1.166586 -0.466637 0.000031 -0.000009 -0.000044 -2.338596 -0.252538 -0.551446 -94.580177 -3.296188 -8.618275 0.000013 -0.000016 -10.744944 71.711187 -6.072953 -3.769730 -0.000027 0.000068 -10.930839 0.000050 -0.000003 0.000001 -0.000030 -4.087236 -1.487616 0.000001 0.000000 0.000000 2.338593 -0.252534 -0.551485 -90.745217 -3.258451 -8.608972 -0.000027 0.000003 -10.744926 76.894188 -6.597269 -3.279829 0.000012 -0.000006 -10.930859 -0.000007 -0.000002 -0.000001 -0.000052 -4.087208 -1.487649 0.000003 -0.000000 -0.000007 
0.000155 26.873873 34.755630 6.327372 28.212177 68.866981 -0.000001 0.900091 1.860676 20.762614 -12.028525 2.938718 -0.000019 0.400271 2.270286 0.000003 -0.000001 0.000015 0.000016 0.200866 2.296543 -0.000000 -0.000000 0.000002 0.000018 0.000026 2.305298 -0.000013 -0.000010 5.180730 -0.000022 -0.864440 6.051377 -15.344814 9.912629 -174.873716 0.000045 -0.550416 3.121670 -0.000006 -0.000001 -0.000005 -0.788279 -1.313735 4.256828 6.862381 125.775065 142.634895 -3.915139 -0.000025 -0.000012 -0.000000 -0.000006 0.000001 -6.914846 -0.000002 0.000031 -0.000032 -0.000023 -115.428530 -6.096188 0.000022 0.000015 -0.000015 -0.000030 -0.000044 -1.749900 -0.000014 0.000035 -0.000002 0.000005 0.000001 -0.699965 -1.166605 -0.466639 -0.000025 -0.000004 -0.000024 0.788252 -1.313761 4.256759 -136.979389 -55.539308 76.335417 3.915257 -0.000002 -0.000042 -0.000005 0.000002 0.000004 6.914923 -0.000065 -0.000010 -0.000015 0.000008 81.837291 6.096264 0.000174 -0.000028 -0.000004 0.000018 0.000020 1.749991 0.000017 0.000074 -0.000010 -0.000002 0.000006 0.699973 -1.166584 -0.466648 0.000040 -0.000006 -0.000041 -2.338592 -0.252535 -0.551444 -94.793928 -3.539387 -8.300406 0.000012 -0.000014 -10.744945 71.369972 -5.792341 -3.997783 -0.000028 0.000069 -10.930837 0.000046 -0.000000 0.000003 -0.000027 -4.087236 -1.487619 0.000001 0.000000 0.000001 2.338596 -0.252531 -0.551483 -91.460010 -2.926572 -8.286926 -0.000024 0.000001 -10.744922 77.890808 -6.990500 -3.071694 0.000002 -0.000006 -10.930861 -0.000009 -0.000001 0.000000 -0.000052 -4.087207 -1.487654 0.000002 -0.000000 -0.000006 
0.000156 26.873882 34.755623 6.974069 28.554115 69.054094 -0.000005 0.900091 1.860674 20.577673 -11.808005 2.823256 -0.000016 0.400276 2.270295 0.000003 0.000001 0.000016 0.000009 0.200865 2.296541 -0.000001 0.000000 0.000006 0.000018 0.000032 2.305298 -0.000015 -0.000002 5.030638 -0.000024 -0.864434 6.051377 -16.149245 9.812501 -175.651374 0.000045 -0.550416 3.121673 -0.000007 0.000000 -0.000004 -0.788279 -1.313728 4.256827 6.532513 125.256872 142.651028 -3.915136 -0.000025 -0.000012 -0.000001 -0.000004 0.000001 -6.914845 -0.000002 0.000023 -0.000031 -0.000023 -115.365529 -6.096186 0.000011 0.000015 -0.000017 -0.000031 -0.000045 -1.749901 -0.000019 0.000035 -0.000001 0.000002 0.000001 -0.699967 -1.166611 -0.466642 -0.000023 -0.000007 -0.000024 0.788252 -1.313753 4.256761 -137.181139 -55.736611 76.073609 3.915256 -0.000001 -0.000038 -0.000004 0.000001 0.000003 6.914926 -0.000061 -0.000009 -0.000002 0.000004 80.284960 6.096258 0.000180 -0.000028 -0.000000 0.000014 0.000026 1.749992 0.000015 0.000067 -0.000017 -0.000003 0.000008 0.699978 -1.166587 -0.466643 0.000031 -0.000010 -0.000040 -2.338594 -0.252538 -0.551453 -95.175565 -3.319033 -8.034860 0.000015 -0.000014 -10.744946 71.319435 -5.750840 -3.820065 -0.000023 0.000069 -10.930844 0.000046 -0.000002 0.000003 -0.000025 -4.087235 -1.487620 0.000004 0.000001 -0.000002 2.338592 -0.252529 -0.551484 -91.818254 -2.744615 -8.025451 -0.000023 0.000005 -10.744926 77.710928 -6.499194 -2.933281 0.000007 -0.000006 -10.930861 -0.000007 -0.000000 0.000003 -0.000050 -4.087207 -1.487652 -0.000003 -0.000001 -0.000006 
